<?xml version="1.0" encoding="utf-8"?>
<!-- Generator: Adobe Illustrator 19.0.0, SVG Export Plug-In . SVG Version: 6.00 Build 0)  -->
<svg version="1.1" id="Layer_1" xmlns="http://www.w3.org/2000/svg" xmlns:xlink="http://www.w3.org/1999/xlink" x="0px" y="0px"
	 viewBox="0 0 289.1 85" style="enable-background:new 0 0 289.1 85;" xml:space="preserve">
<style type="text/css">
	.st0{fill:#ED1C24;}
	.st1{fill:#0053A1;}
</style>
<g id="XMLID_110_">
	<path id="XMLID_71_" class="st0" d="M5.2,3.5h57.6v12.5c-4.1-3.4-12.8-4.8-22-4.8v34.2c0,5.1,0.4,6.5,2.4,9.1H24.8
		c2-2.6,2.4-4,2.4-9.1V11.3c-9.3,0-17.9,1.4-22,4.8V3.5z M90.3,46.9c5.9,0,15.8-1.4,19.6-4.8v12.5H68c2-2.4,2.4-4,2.4-8.9V12.4
		c0-4.9-0.4-6.5-2.4-8.9h39.8v12.5c-3.9-3.4-13.7-4.8-19.6-4.8h-4.7v13.6h3.4c3.4,0,8.5-0.1,12-1.4v10.1c-3.4-1.2-8.6-1.4-12-1.4
		h-3.4v14.7H90.3z M145.3,23.2c10,1.4,18.3,4.9,18.3,15.8c0,12.8-12.1,16.8-25.2,16.8c-9.1-0.1-16.8-0.9-22.5-3.2V41
		c8.1,5.3,16.4,6.9,22.5,6.9c6.3,0,12.2-1.5,12.2-6.3s-5.4-6-16.5-7.7c-9.6-1.5-18.2-5.5-18.3-15c-0.1-12.7,12-16.6,23.5-16.6
		c7.4,0,14.7,0.9,21.3,3.1v12.3c-5.5-4.9-13.8-7.7-21.9-7.7c-5.5,0-10.6,1.8-10.6,5.8C128.1,21.1,135.8,21.8,145.3,23.2z M202.3,2.4
		c6,0,11.2,0.7,15.3,1.8V17c-4.1-4.2-8.9-6.8-15.2-6.8c-11.6,0-19.3,8.1-19.3,18.9S190.8,48,202.4,48c6.3,0,11.2-2.6,15.2-6.8v12.7
		c-4.2,1.1-9.3,1.9-15.3,1.9c-20.1,0-34.6-10-34.6-26.7C167.7,12.4,182.3,2.4,202.3,2.4z"/>
	<path id="XMLID_68_" class="st0" d="M253.8,2.4c-20.7,0-32.5,12-32.5,26.6c0,14.5,11.8,26.6,32.5,26.6c20.7,0,32.5-12.1,32.5-26.6
		C286.3,14.5,274.5,2.4,253.8,2.4z M253.8,48c-10.4,0-17.2-8.6-17.2-18.9c0-10.4,6.8-18.9,17.2-18.9c10.4,0,17.2,8.5,17.2,18.9
		C271,39.3,264.2,48,253.8,48z"/>
	<path id="XMLID_67_" class="st1" d="M250.9,68.5h34.8c0,0,0.1,0,0.1,0l0,0c0,0,0,0,0,0c0.1,0.1,0.1,0.2,0,0.3c0,0-0.1,0-0.1,0.1
		l-0.1,0c-4,1.8-9.4,7.5-9.4,7.5c-4,3.8-7.1,6.3-13.5,6.3h-33.1c-0.1,0-0.1-0.1-0.2-0.2c0,0,0,0,0,0c0-0.1,0-0.1,0.1-0.2
		c0,0,0.1-0.1,0.1-0.1c3.6-2,9.1-7.7,9.1-7.7C240.8,71.9,245.3,68.5,250.9,68.5"/>
	<path id="XMLID_66_" class="st1" d="M194.3,68.5H229c0,0,0.1,0,0.1,0l0,0c0,0,0,0,0,0c0.1,0.1,0.1,0.2,0,0.3c0,0-0.1,0-0.1,0.1
		l-0.1,0c-4,1.8-9.4,7.5-9.4,7.5c-4,3.8-7.1,6.3-13.5,6.3h-33.1c-0.1,0-0.1-0.1-0.2-0.2c0,0,0,0,0,0c0-0.1,0-0.1,0.1-0.2
		c0,0,0.1-0.1,0.1-0.1c3.6-2,9.1-7.7,9.1-7.7C184.2,71.9,188.6,68.5,194.3,68.5"/>
	<path id="XMLID_65_" class="st1" d="M137.7,68.5h34.8c0,0,0.1,0,0.1,0l0,0c0,0,0,0,0,0c0.1,0.1,0.1,0.2,0,0.3c0,0-0.1,0-0.1,0.1
		l-0.1,0c-4,1.8-9.4,7.5-9.4,7.5c-4,3.8-7.1,6.3-13.5,6.3h-33.1c-0.1,0-0.1-0.1-0.2-0.2c0,0,0,0,0,0c0-0.1,0-0.1,0.1-0.2
		c0,0,0.1-0.1,0.1-0.1c3.6-2,9.1-7.7,9.1-7.7C127.6,71.9,132,68.5,137.7,68.5"/>
	<path id="XMLID_58_" class="st1" d="M81,68.5h34.8c0,0,0.1,0,0.1,0l0,0c0,0,0,0,0,0c0.1,0.1,0.1,0.2,0,0.3c0,0-0.1,0-0.1,0.1
		l-0.1,0c-4,1.8-9.4,7.5-9.4,7.5c-4,3.8-7.1,6.3-13.5,6.3H59.6c-0.1,0-0.1-0.1-0.2-0.2c0,0,0,0,0,0c0-0.1,0-0.1,0.1-0.2
		c0,0,0.1-0.1,0.1-0.1c3.6-2,9.1-7.7,9.1-7.7C70.9,71.9,75.4,68.5,81,68.5"/>
	<path id="XMLID_57_" class="st1" d="M24.4,68.5h34.8c0,0,0.1,0,0.1,0l0,0c0,0,0,0,0,0c0.1,0.1,0.1,0.2,0,0.3c0,0-0.1,0-0.1,0.1
		l-0.1,0c-4,1.8-9.4,7.5-9.4,7.5c-4,3.8-7.1,6.3-13.5,6.3H3c-0.1,0-0.1-0.1-0.2-0.2c0,0,0,0,0,0c0-0.1,0-0.1,0.1-0.2
		c0,0,0.1-0.1,0.1-0.1c3.6-2,9.1-7.7,9.1-7.7C14.3,71.9,18.7,68.5,24.4,68.5"/>
</g>
</svg>
